<svg width="30" height="30" viewBox="0 0 30 30" fill="none" xmlns="http://www.w3.org/2000/svg">
<g clip-path="url(#clip0_346_11)">
<path d="M15.0001 8.91382C14.2008 8.91382 13.4094 9.07124 12.671 9.37711C11.9325 9.68297 11.2616 10.1313 10.6964 10.6964C10.1313 11.2616 9.68297 11.9325 9.37711 12.671C9.07124 13.4094 8.91382 14.2008 8.91382 15.0001C8.91382 15.7993 9.07124 16.5908 9.37711 17.3292C9.68297 18.0676 10.1313 18.7385 10.6964 19.3037C11.2616 19.8689 11.9325 20.3172 12.671 20.623C13.4094 20.9289 14.2008 21.0863 15.0001 21.0863C16.6142 21.0863 18.1623 20.4451 19.3037 19.3037C20.4451 18.1623 21.0863 16.6142 21.0863 15.0001C21.0863 13.3859 20.4451 11.8378 19.3037 10.6964C18.1623 9.55505 16.6142 8.91382 15.0001 8.91382ZM10.7888 15.0001C10.7888 13.8832 11.2325 12.812 12.0223 12.0223C12.812 11.2325 13.8832 10.7888 15.0001 10.7888C16.117 10.7888 17.1881 11.2325 17.9779 12.0223C18.7676 12.812 19.2113 13.8832 19.2113 15.0001C19.2113 16.117 18.7676 17.1881 17.9779 17.9779C17.1881 18.7676 16.117 19.2113 15.0001 19.2113C13.8832 19.2113 12.812 18.7676 12.0223 17.9779C11.2325 17.1881 10.7888 16.117 10.7888 15.0001Z" fill="white"/>
<path d="M18.3675 2.51816C17.3794 -0.838086 12.6207 -0.838086 11.6325 2.51816L11.4563 3.11629C11.3873 3.35057 11.2667 3.56645 11.1034 3.74809C10.9402 3.92972 10.7383 4.07252 10.5127 4.16601C10.287 4.2595 10.0433 4.30131 9.79945 4.28838C9.55556 4.27545 9.31765 4.20811 9.10316 4.09129L8.55566 3.79129C5.48066 2.11879 2.11879 5.48254 3.79316 8.55566L4.09129 9.10316C4.20811 9.31765 4.27545 9.55556 4.28838 9.79945C4.30131 10.0433 4.2595 10.287 4.16601 10.5127C4.07252 10.7383 3.92972 10.9402 3.74809 11.1034C3.56645 11.2667 3.35057 11.3873 3.11629 11.4563L2.51816 11.6325C-0.838086 12.6207 -0.838086 17.3794 2.51816 18.3675L3.11629 18.5438C3.35057 18.6128 3.56645 18.7334 3.74809 18.8966C3.92972 19.0599 4.07252 19.2618 4.16601 19.4874C4.2595 19.713 4.30131 19.9567 4.28838 20.2006C4.27545 20.4445 4.20811 20.6824 4.09129 20.8969L3.79129 21.4444C2.11879 24.5194 5.48066 27.8832 8.55566 26.2069L9.10316 25.9088C9.31765 25.792 9.55556 25.7246 9.79945 25.7117C10.0433 25.6988 10.287 25.7406 10.5127 25.8341C10.7383 25.9276 10.9402 26.0704 11.1034 26.252C11.2667 26.4336 11.3873 26.6495 11.4563 26.8838L11.6325 27.4819C12.6207 30.8382 17.3794 30.8382 18.3675 27.4819L18.5438 26.8838C18.6128 26.6495 18.7334 26.4336 18.8966 26.252C19.0599 26.0704 19.2618 25.9276 19.4874 25.8341C19.713 25.7406 19.9567 25.6988 20.2006 25.7117C20.4445 25.7246 20.6824 25.792 20.8969 25.9088L21.4444 26.2088C24.5194 27.8832 27.8832 24.5175 26.2069 21.4444L25.9088 20.8969C25.792 20.6824 25.7246 20.4445 25.7117 20.2006C25.6988 19.9567 25.7406 19.713 25.8341 19.4874C25.9276 19.2618 26.0704 19.0599 26.252 18.8966C26.4336 18.7334 26.6495 18.6128 26.8838 18.5438L27.4819 18.3675C30.8382 17.3794 30.8382 12.6207 27.4819 11.6325L26.8838 11.4563C26.6495 11.3873 26.4336 11.2667 26.252 11.1034C26.0704 10.9402 25.9276 10.7383 25.8341 10.5127C25.7406 10.287 25.6988 10.0433 25.7117 9.79945C25.7246 9.55556 25.792 9.31765 25.9088 9.10316L26.2088 8.55566C27.8832 5.48066 24.5175 2.11879 21.4444 3.79316L20.8969 4.09129C20.6824 4.20811 20.4445 4.27545 20.2006 4.28838C19.9567 4.30131 19.713 4.2595 19.4874 4.16601C19.2618 4.07252 19.0599 3.92972 18.8966 3.74809C18.7334 3.56645 18.6128 3.35057 18.5438 3.11629L18.3675 2.51816ZM13.4307 3.04879C13.8919 1.48316 16.1082 1.48316 16.5694 3.04879L16.7457 3.64691C16.8938 4.14957 17.1526 4.6127 17.503 5.00235C17.8534 5.392 18.2866 5.69828 18.7708 5.89875C19.255 6.09922 19.7779 6.18879 20.3012 6.16089C20.8245 6.133 21.3349 5.98834 21.795 5.73754L22.3407 5.43754C23.7732 4.65941 25.3407 6.22504 24.5607 7.65941L24.2625 8.20691C24.0121 8.66709 23.8678 9.17746 23.8402 9.70064C23.8126 10.2238 23.9024 10.7465 24.1031 11.2305C24.3037 11.7145 24.6101 12.1474 24.9997 12.4976C25.3894 12.8478 25.8525 13.1064 26.355 13.2544L26.9513 13.4307C28.5169 13.8919 28.5169 16.1082 26.9513 16.5694L26.3532 16.7457C25.8505 16.8938 25.3874 17.1526 24.9977 17.503C24.6081 17.8534 24.3018 18.2866 24.1013 18.7708C23.9009 19.255 23.8113 19.7779 23.8392 20.3012C23.8671 20.8245 24.0117 21.3349 24.2625 21.795L24.5625 22.3407C25.3407 23.7732 23.775 25.3407 22.3407 24.5607L21.795 24.2625C21.3348 24.0118 20.8242 23.8672 20.3008 23.8394C19.7774 23.8116 19.2545 23.9014 18.7703 24.102C18.286 24.3027 17.8529 24.6092 17.5026 24.999C17.1522 25.3889 16.8936 25.8522 16.7457 26.355L16.5694 26.9513C16.1082 28.5169 13.8919 28.5169 13.4307 26.9513L13.2544 26.3532C13.1062 25.8508 12.8474 25.3879 12.4972 24.9984C12.1469 24.609 11.7139 24.3028 11.23 24.1024C10.746 23.9019 10.2234 23.8123 9.70029 23.84C9.17722 23.8677 8.66697 24.0121 8.20691 24.2625L7.65941 24.5625C6.22691 25.3407 4.65941 23.775 5.43941 22.3407L5.73754 21.795C5.9887 21.3348 6.13363 20.8242 6.16171 20.3007C6.18979 19.7772 6.1003 19.254 5.89981 18.7696C5.69931 18.2852 5.3929 17.8518 5.00306 17.5013C4.61322 17.1507 4.14984 16.8919 3.64691 16.7438L3.04879 16.5675C1.48316 16.1063 1.48316 13.89 3.04879 13.4288L3.64691 13.2525C4.14905 13.1042 4.61167 12.8456 5.00093 12.4954C5.39019 12.1452 5.69622 11.7125 5.89664 11.2288C6.09706 10.7451 6.18678 10.2227 6.15926 9.69982C6.13173 9.17697 5.98764 8.66689 5.73754 8.20691L5.43754 7.65941C4.65941 6.22691 6.22504 4.65941 7.65941 5.43941L8.20691 5.73754C8.66697 5.98799 9.17722 6.13236 9.70029 6.16008C10.2234 6.18779 10.746 6.09814 11.23 5.89769C11.7139 5.69725 12.1469 5.39109 12.4972 5.00164C12.8474 4.61219 13.1062 4.14931 13.2544 3.64691L13.4307 3.04879Z" fill="white"/>
</g>
<defs>
<clipPath id="clip0_346_11">
<rect width="30" height="30" fill="white"/>
</clipPath>
</defs>
</svg>
