<svg width="30" height="30" viewBox="0 0 30 30" fill="none" xmlns="http://www.w3.org/2000/svg">
<g clip-path="url(#clip0_346_3)">
<path d="M15 9.375C15.3693 9.375 15.7351 9.30225 16.0763 9.16091C16.4175 9.01957 16.7276 8.8124 16.9887 8.55124C17.2499 8.29007 17.4571 7.98003 17.5984 7.6388C17.7398 7.29757 17.8125 6.93184 17.8125 6.5625C17.8125 6.19316 17.7398 5.82743 17.5984 5.4862C17.4571 5.14497 17.2499 4.83493 16.9887 4.57376C16.7276 4.3126 16.4175 4.10543 16.0763 3.96409C15.7351 3.82275 15.3693 3.75 15 3.75C14.2541 3.75 13.5387 4.04632 13.0113 4.57376C12.4838 5.10121 12.1875 5.81658 12.1875 6.5625C12.1875 7.30842 12.4838 8.02379 13.0113 8.55124C13.5387 9.07868 14.2541 9.375 15 9.375ZM22.5 15C23.2459 15 23.9613 14.7037 24.4887 14.1762C25.0162 13.6488 25.3125 12.9334 25.3125 12.1875C25.3125 11.4416 25.0162 10.7262 24.4887 10.1988C23.9613 9.67132 23.2459 9.375 22.5 9.375C21.7541 9.375 21.0387 9.67132 20.5113 10.1988C19.9838 10.7262 19.6875 11.4416 19.6875 12.1875C19.6875 12.9334 19.9838 13.6488 20.5113 14.1762C21.0387 14.7037 21.7541 15 22.5 15ZM10.3125 13.125C10.3125 13.8709 10.0162 14.5863 9.48874 15.1137C8.96129 15.6412 8.24592 15.9375 7.5 15.9375C6.75408 15.9375 6.03871 15.6412 5.51126 15.1137C4.98382 14.5863 4.6875 13.8709 4.6875 13.125C4.6875 12.3791 4.98382 11.6637 5.51126 11.1363C6.03871 10.6088 6.75408 10.3125 7.5 10.3125C8.24592 10.3125 8.96129 10.6088 9.48874 11.1363C10.0162 11.6637 10.3125 12.3791 10.3125 13.125ZM11.25 24.375C11.9959 24.375 12.7113 24.0787 13.2387 23.5512C13.7662 23.0238 14.0625 22.3084 14.0625 21.5625C14.0625 20.8166 13.7662 20.1012 13.2387 19.5738C12.7113 19.0463 11.9959 18.75 11.25 18.75C10.5041 18.75 9.78871 19.0463 9.26126 19.5738C8.73382 20.1012 8.4375 20.8166 8.4375 21.5625C8.4375 22.3084 8.73382 23.0238 9.26126 23.5512C9.78871 24.0787 10.5041 24.375 11.25 24.375Z" fill="white"/>
<path d="M30 15C30 20.9063 26.5013 19.8469 23.3119 18.8813C21.4125 18.3056 19.6219 17.7619 18.75 18.75C17.6194 20.0306 17.8594 22.1606 18.0919 24.225C18.4238 27.1781 18.7425 30 15 30C12.0333 30 9.13319 29.1203 6.66645 27.4721C4.19972 25.8238 2.27713 23.4811 1.14181 20.7403C0.00649922 17.9994 -0.290551 14.9834 0.288228 12.0737C0.867006 9.16394 2.29562 6.49119 4.39341 4.39341C6.49119 2.29562 9.16394 0.867006 12.0737 0.288228C14.9834 -0.290551 17.9994 0.00649922 20.7403 1.14181C23.4811 2.27713 25.8238 4.19972 27.4721 6.66645C29.1203 9.13319 30 12.0333 30 15ZM15 28.125C16.1456 28.125 16.2263 27.8044 16.2281 27.795C16.3744 27.5213 16.4606 26.925 16.3594 25.6969C16.3331 25.3819 16.29 25.0031 16.245 24.5888C16.1475 23.7188 16.035 22.7044 16.0238 21.8475C16.005 20.5219 16.1794 18.8288 17.3438 17.5088C18.0356 16.7269 18.9281 16.425 19.7288 16.35C20.4863 16.2788 21.2513 16.3988 21.9038 16.545C22.5469 16.6894 23.22 16.8938 23.8256 17.0775L23.8781 17.0925C24.5269 17.2894 25.1119 17.4656 25.665 17.5913C26.8894 17.8688 27.36 17.7469 27.5231 17.6363C27.5944 17.5875 28.125 17.1769 28.125 15C28.125 12.4041 27.3552 9.86654 25.913 7.70815C24.4709 5.54975 22.421 3.86749 20.0227 2.87409C17.6244 1.88069 14.9854 1.62077 12.4394 2.1272C9.89345 2.63363 7.55479 3.88367 5.71923 5.71923C3.88367 7.55479 2.63363 9.89345 2.1272 12.4394C1.62077 14.9854 1.88069 17.6244 2.87409 20.0227C3.86749 22.421 5.54975 24.4709 7.70815 25.913C9.86654 27.3552 12.4041 28.125 15 28.125Z" fill="white"/>
</g>
<defs>
<clipPath id="clip0_346_3">
<rect width="30" height="30" fill="white"/>
</clipPath>
</defs>
</svg>
