<svg width="30" height="30" viewBox="0 0 30 30" fill="none" xmlns="http://www.w3.org/2000/svg">
<g clip-path="url(#clip0_346_6)">
<path d="M25.3125 1.8751C24.5666 1.8751 23.8512 2.17142 23.3238 2.69886C22.7963 3.22631 22.5 3.94168 22.5 4.6876C22.5 5.43352 22.7963 6.14889 23.3238 6.67634C23.8512 7.20379 24.5666 7.5001 25.3125 7.5001C26.0584 7.5001 26.7738 7.20379 27.3012 6.67634C27.8287 6.14889 28.125 5.43352 28.125 4.6876C28.125 3.94168 27.8287 3.22631 27.3012 2.69886C26.7738 2.17142 26.0584 1.8751 25.3125 1.8751ZM20.625 4.6876C20.6249 3.58779 21.0115 2.52294 21.7171 1.67937C22.4228 0.8358 23.4026 0.26722 24.4852 0.0731076C25.5677 -0.121004 26.6841 0.0717131 27.6389 0.617543C28.5937 1.16337 29.3262 2.02756 29.7082 3.0589C30.0902 4.09024 30.0974 5.22306 29.7285 6.25917C29.3596 7.29529 28.6382 8.1687 27.6904 8.72662C26.7426 9.28453 25.6288 9.49142 24.5439 9.31107C23.4589 9.13073 22.472 8.57464 21.7556 7.7401L9.15938 13.5901C9.44896 14.5078 9.44896 15.4924 9.15938 16.4101L21.7556 22.2601C22.5128 21.3795 23.57 20.8113 24.7222 20.6657C25.8745 20.5201 27.0398 20.8074 27.9922 21.472C28.9447 22.1366 29.6165 23.1311 29.8775 24.2628C30.1385 25.3945 29.9701 26.5828 29.4049 27.5974C28.8397 28.612 27.9179 29.3807 26.8183 29.7544C25.7186 30.1281 24.5194 30.0803 23.453 29.6202C22.3866 29.1602 21.529 28.3206 21.0463 27.2642C20.5637 26.2079 20.4904 25.0099 20.8406 23.9026L8.24438 18.0526C7.62082 18.7793 6.78967 19.2976 5.86272 19.5378C4.93577 19.7779 3.95751 19.7285 3.05952 19.396C2.16153 19.0635 1.3869 18.464 0.839835 17.6781C0.292769 16.8922 -0.000488281 15.9577 -0.000488281 15.0001C-0.000488281 14.0425 0.292769 13.108 0.839835 12.3221C1.3869 11.5362 2.16153 10.9367 3.05952 10.6042C3.95751 10.2717 4.93577 10.2223 5.86272 10.4624C6.78967 10.7026 7.62082 11.2209 8.24438 11.9476L20.8406 6.0976C20.6972 5.64135 20.6245 5.16585 20.625 4.6876ZM4.68751 12.1876C3.94159 12.1876 3.22622 12.4839 2.69877 13.0114C2.17133 13.5388 1.87501 14.2542 1.87501 15.0001C1.87501 15.746 2.17133 16.4614 2.69877 16.9888C3.22622 17.5163 3.94159 17.8126 4.68751 17.8126C5.43343 17.8126 6.1488 17.5163 6.67625 16.9888C7.20369 16.4614 7.50001 15.746 7.50001 15.0001C7.50001 14.2542 7.20369 13.5388 6.67625 13.0114C6.1488 12.4839 5.43343 12.1876 4.68751 12.1876ZM25.3125 22.5001C24.5666 22.5001 23.8512 22.7964 23.3238 23.3239C22.7963 23.8513 22.5 24.5667 22.5 25.3126C22.5 26.0585 22.7963 26.7739 23.3238 27.3013C23.8512 27.8288 24.5666 28.1251 25.3125 28.1251C26.0584 28.1251 26.7738 27.8288 27.3012 27.3013C27.8287 26.7739 28.125 26.0585 28.125 25.3126C28.125 24.5667 27.8287 23.8513 27.3012 23.3239C26.7738 22.7964 26.0584 22.5001 25.3125 22.5001Z" fill="white"/>
</g>
<defs>
<clipPath id="clip0_346_6">
<rect width="30" height="30" fill="white"/>
</clipPath>
</defs>
</svg>
